<svg width="25" height="24" viewBox="0 0 25 24" fill="none" xmlns="http://www.w3.org/2000/svg">
<mask id="mask0_237_2181" style="mask-type:alpha" maskUnits="userSpaceOnUse" x="0" y="0" width="25" height="25">
<rect x="0.436279" y="0.0012207" width="24" height="24" fill="#D9D9D9"/>
</mask>
<g mask="url(#mask0_237_2181)">
<path d="M5.43628 21.0012C4.88628 21.0012 4.41545 20.8054 4.02378 20.4137C3.63211 20.022 3.43628 19.5512 3.43628 19.0012V5.0012C3.43628 4.4512 3.63211 3.98036 4.02378 3.5887C4.41545 3.19703 4.88628 3.0012 5.43628 3.0012H14.3613L12.3613 5.0012H5.43628V19.0012H19.4363V12.0512L21.4363 10.0512V19.0012C21.4363 19.5512 21.2404 20.022 20.8488 20.4137C20.4571 20.8054 19.9863 21.0012 19.4363 21.0012H5.43628ZM9.43628 15.0012V10.7512L18.6113 1.5762C18.8113 1.3762 19.0363 1.2262 19.2863 1.1262C19.5363 1.0262 19.7863 0.976196 20.0363 0.976196C20.3029 0.976196 20.5571 1.0262 20.7988 1.1262C21.0404 1.2262 21.2613 1.3762 21.4613 1.5762L22.8613 3.0012C23.0446 3.2012 23.1863 3.42203 23.2863 3.6637C23.3863 3.90536 23.4363 4.1512 23.4363 4.4012C23.4363 4.6512 23.3904 4.89703 23.2988 5.1387C23.2071 5.38036 23.0613 5.6012 22.8613 5.8012L13.6863 15.0012H9.43628ZM11.4363 13.0012H12.8363L18.6363 7.2012L17.9363 6.5012L17.2113 5.8012L11.4363 11.5762V13.0012Z" fill="#888888"/>
</g>
</svg>
